<svg version="1.1" xmlns="http://www.w3.org/2000/svg" xmlns:xlink="http://www.w3.org/1999/xlink" width="840" height="799"><defs></defs><g><g transform="translate(-206,-102) scale(1,1)"><rect fill="#C0C0C0" stroke="none" x="807" y="275" width="219" height="192" opacity="0.2"></rect></g><g transform="translate(-206,-102) scale(1,1)"><rect fill="#ffffff" stroke="none" x="800" y="268" width="219" height="192"></rect></g><g transform="translate(-206,-102) scale(1,1)"><path fill="none" stroke="#000000" d="M 800 268 L 1019 268 L 1019 460 L 800 460 L 800 268 Z Z" stroke-miterlimit="10"></path></g><g transform="translate(-206,-102) scale(1,1)"><path fill="none" stroke="#000000" d="M 800 293 L 1019 293" stroke-miterlimit="10"></path></g><g transform="translate(-206,-102) scale(1,1)"><path fill="none" stroke="#000000" d="M 800 346 L 1019 346" stroke-miterlimit="10"></path></g><g transform="translate(-206,-102) scale(1,1)"><g><path fill="none" stroke="none"></path><text fill="#000000" stroke="none" font-family="Arial" font-size="13px" font-style="normal" font-weight="bold" text-decoration="none" x="880.5" y="287.5">Calculator</text></g></g><g transform="translate(-206,-102) scale(1,1)"><g><path fill="none" stroke="none"></path><text fill="#000000" stroke="none" font-family="Arial" font-size="13px" font-style="normal" font-weight="normal" text-decoration="none" x="805" y="310.5">-mode_sintaks: EnumSintaks</text></g></g><g transform="translate(-206,-102) scale(1,1)"><g><path fill="none" stroke="none"></path><text fill="#000000" stroke="none" font-family="Arial" font-size="13px" font-style="normal" font-weight="normal" text-decoration="none" x="805" y="325.5">-mode_math_logic</text></g></g><g transform="translate(-206,-102) scale(1,1)"><g><path fill="none" stroke="none"></path><text fill="#000000" stroke="none" font-family="Arial" font-size="13px" font-style="normal" font-weight="normal" text-decoration="none" x="805" y="340.5">-mode_bilangan: EnumBilangan</text></g></g><g transform="translate(-206,-102) scale(1,1)"><g><path fill="none" stroke="none"></path><text fill="#000000" stroke="none" font-family="Arial" font-size="13px" font-style="normal" font-weight="normal" text-decoration="none" x="805" y="363.5">+SetMode()</text></g></g><g transform="translate(-206,-102) scale(1,1)"><g><path fill="none" stroke="none"></path><text fill="#000000" stroke="none" font-family="Arial" font-size="13px" font-style="normal" font-weight="normal" text-decoration="none" x="805" y="378.5">+SetSintaks(EnumPerintah)</text></g></g><g transform="translate(-206,-102) scale(1,1)"><g><path fill="none" stroke="none"></path><text fill="#000000" stroke="none" font-family="Arial" font-size="13px" font-style="normal" font-weight="normal" text-decoration="none" x="805" y="393.5">+SetJenisAngka()</text></g></g><g transform="translate(-206,-102) scale(1,1)"><g><path fill="none" stroke="none"></path><text fill="#000000" stroke="none" font-family="Arial" font-size="13px" font-style="normal" font-weight="normal" text-decoration="none" x="805" y="408.5">+Run()</text></g></g><g transform="translate(-206,-102) scale(1,1)"><g><path fill="none" stroke="none"></path><text fill="#000000" stroke="none" font-family="Arial" font-size="13px" font-style="normal" font-weight="normal" text-decoration="none" x="805" y="423.5">+Calculate(E: Expression): Bilangan</text></g></g><g transform="translate(-206,-102) scale(1,1)"><g><path fill="none" stroke="none"></path><text fill="#000000" stroke="none" font-family="Arial" font-size="13px" font-style="normal" font-weight="normal" text-decoration="none" x="805" y="438.5">+JalankanPerintah(E: Expression)</text></g></g><g transform="translate(-206,-102) scale(1,1)"><rect fill="#C0C0C0" stroke="none" x="279" y="463" width="147" height="131" opacity="0.2"></rect></g><g transform="translate(-206,-102) scale(1,1)"><rect fill="#ffffff" stroke="none" x="272" y="456" width="147" height="131"></rect></g><g transform="translate(-206,-102) scale(1,1)"><path fill="none" stroke="#000000" d="M 272 456 L 419 456 L 419 587 L 272 587 L 272 456 Z Z" stroke-miterlimit="10"></path></g><g transform="translate(-206,-102) scale(1,1)"><path fill="none" stroke="#000000" d="M 272 481 L 419 481" stroke-miterlimit="10"></path></g><g transform="translate(-206,-102) scale(1,1)"><path fill="none" stroke="#000000" d="M 272 491 L 419 491" stroke-miterlimit="10"></path></g><g transform="translate(-206,-102) scale(1,1)"><g><path fill="none" stroke="none"></path><text fill="#000000" stroke="none" font-family="Arial" font-size="13px" font-style="italic" font-weight="bold" text-decoration="none" x="327" y="475.5">Token</text></g></g><g transform="translate(-206,-102) scale(1,1)"><g><path fill="none" stroke="none"></path><text fill="#000000" stroke="none" font-family="Arial" font-size="13px" font-style="normal" font-weight="normal" text-decoration="none" x="277" y="508.5">+GetType(): EnumType</text></g></g><g transform="translate(-206,-102) scale(1,1)"><g><path fill="none" stroke="none"></path><text fill="#000000" stroke="none" font-family="Arial" font-size="13px" font-style="normal" font-weight="normal" text-decoration="none" x="277" y="523.5">+Display()</text></g></g><g transform="translate(-206,-102) scale(1,1)"><rect fill="#C0C0C0" stroke="none" x="687" y="507" width="356" height="128" opacity="0.2"></rect></g><g transform="translate(-206,-102) scale(1,1)"><rect fill="#ffffff" stroke="none" x="680" y="500" width="356" height="128"></rect></g><g transform="translate(-206,-102) scale(1,1)"><path fill="none" stroke="#000000" d="M 680 500 L 1036 500 L 1036 628 L 680 628 L 680 500 Z Z" stroke-miterlimit="10"></path></g><g transform="translate(-206,-102) scale(1,1)"><path fill="none" stroke="#000000" d="M 680 525 L 1036 525" stroke-miterlimit="10"></path></g><g transform="translate(-206,-102) scale(1,1)"><path fill="none" stroke="#000000" d="M 680 535 L 1036 535" stroke-miterlimit="10"></path></g><g transform="translate(-206,-102) scale(1,1)"><g><path fill="none" stroke="none"></path><text fill="#000000" stroke="none" font-family="Arial" font-size="13px" font-style="normal" font-weight="bold" text-decoration="none" x="839" y="519.5">Parser</text></g></g><g transform="translate(-206,-102) scale(1,1)"><g><path fill="none" stroke="none"></path><text fill="#000000" stroke="none" font-family="Arial" font-size="13px" font-style="normal" font-weight="normal" text-decoration="none" x="685" y="552.5">+GenerateExpresion(modeb: EnumBilangan): Expression</text></g></g><g transform="translate(-206,-102) scale(1,1)"><rect fill="#C0C0C0" stroke="none" x="223" y="655" width="167" height="116" opacity="0.2"></rect></g><g transform="translate(-206,-102) scale(1,1)"><rect fill="#ffffff" stroke="none" x="216" y="648" width="167" height="116"></rect></g><g transform="translate(-206,-102) scale(1,1)"><path fill="none" stroke="#000000" d="M 216 648 L 383 648 L 383 764 L 216 764 L 216 648 Z Z" stroke-miterlimit="10"></path></g><g transform="translate(-206,-102) scale(1,1)"><path fill="none" stroke="#000000" d="M 216 673 L 383 673" stroke-miterlimit="10"></path></g><g transform="translate(-206,-102) scale(1,1)"><path fill="none" stroke="#000000" d="M 216 696 L 383 696" stroke-miterlimit="10"></path></g><g transform="translate(-206,-102) scale(1,1)"><g><path fill="none" stroke="none"></path><text fill="#000000" stroke="none" font-family="Arial" font-size="13px" font-style="normal" font-weight="bold" text-decoration="none" x="274.5" y="667.5">Bilangan</text></g></g><g transform="translate(-206,-102) scale(1,1)"><g><path fill="none" stroke="none"></path><text fill="#000000" stroke="none" font-family="Arial" font-size="13px" font-style="normal" font-weight="normal" text-decoration="none" x="221" y="690.5">-Value: LongDouble</text></g></g><g transform="translate(-206,-102) scale(1,1)"><g><path fill="none" stroke="none"></path><text fill="#000000" stroke="none" font-family="Arial" font-size="13px" font-style="normal" font-weight="normal" text-decoration="none" x="221" y="713.5">+GetValue(): LongDouble</text></g></g><g transform="translate(-206,-102) scale(1,1)"><g><path fill="none" stroke="none"></path><text fill="#000000" stroke="none" font-family="Arial" font-size="13px" font-style="normal" font-weight="normal" text-decoration="none" x="221" y="728.5">+Display(T: EnumBilangan)</text></g></g><g transform="translate(-206,-102) scale(1,1)"><rect fill="#C0C0C0" stroke="none" x="367" y="787" width="218" height="108" opacity="0.2"></rect></g><g transform="translate(-206,-102) scale(1,1)"><rect fill="#ffffff" stroke="none" x="360" y="780" width="218" height="108"></rect></g><g transform="translate(-206,-102) scale(1,1)"><path fill="none" stroke="#000000" d="M 360 780 L 578 780 L 578 888 L 360 888 L 360 780 Z Z" stroke-miterlimit="10"></path></g><g transform="translate(-206,-102) scale(1,1)"><path fill="none" stroke="#000000" d="M 360 805 L 578 805" stroke-miterlimit="10"></path></g><g transform="translate(-206,-102) scale(1,1)"><path fill="none" stroke="#000000" d="M 360 828 L 578 828" stroke-miterlimit="10"></path></g><g transform="translate(-206,-102) scale(1,1)"><g><path fill="none" stroke="none"></path><text fill="#000000" stroke="none" font-family="Arial" font-size="13px" font-style="normal" font-weight="bold" text-decoration="none" x="444" y="799.5">Operator</text></g></g><g transform="translate(-206,-102) scale(1,1)"><g><path fill="none" stroke="none"></path><text fill="#000000" stroke="none" font-family="Arial" font-size="13px" font-style="normal" font-weight="normal" text-decoration="none" x="365" y="822.5">-JenisOperator: EnumOperator</text></g></g><g transform="translate(-206,-102) scale(1,1)"><g><path fill="none" stroke="none"></path><text fill="#000000" stroke="none" font-family="Arial" font-size="13px" font-style="normal" font-weight="normal" text-decoration="none" x="365" y="845.5">+GetJenisOperator(): EnumOperator</text></g></g><g transform="translate(-206,-102) scale(1,1)"><rect fill="#C0C0C0" stroke="none" x="619" y="791" width="214" height="107" opacity="0.2"></rect></g><g transform="translate(-206,-102) scale(1,1)"><rect fill="#ffffff" stroke="none" x="612" y="784" width="214" height="107"></rect></g><g transform="translate(-206,-102) scale(1,1)"><path fill="none" stroke="#000000" d="M 612 784 L 826 784 L 826 891 L 612 891 L 612 784 Z Z" stroke-miterlimit="10"></path></g><g transform="translate(-206,-102) scale(1,1)"><path fill="none" stroke="#000000" d="M 612 809 L 826 809" stroke-miterlimit="10"></path></g><g transform="translate(-206,-102) scale(1,1)"><path fill="none" stroke="#000000" d="M 612 832 L 826 832" stroke-miterlimit="10"></path></g><g transform="translate(-206,-102) scale(1,1)"><g><path fill="none" stroke="none"></path><text fill="#000000" stroke="none" font-family="Arial" font-size="13px" font-style="normal" font-weight="bold" text-decoration="none" x="695" y="803.5">Perintah</text></g></g><g transform="translate(-206,-102) scale(1,1)"><g><path fill="none" stroke="none"></path><text fill="#000000" stroke="none" font-family="Arial" font-size="13px" font-style="normal" font-weight="normal" text-decoration="none" x="617" y="826.5">-JenisPerintah: EnumPerintah</text></g></g><g transform="translate(-206,-102) scale(1,1)"><g><path fill="none" stroke="none"></path><text fill="#000000" stroke="none" font-family="Arial" font-size="13px" font-style="normal" font-weight="normal" text-decoration="none" x="617" y="849.5">+GetJenisPerintah(): EnumPerintah</text></g></g><g transform="translate(-206,-102) scale(1,1)"><rect fill="#C0C0C0" stroke="none" x="519" y="307" width="234" height="120" opacity="0.2"></rect></g><g transform="translate(-206,-102) scale(1,1)"><rect fill="#ffffff" stroke="none" x="512" y="300" width="234" height="120"></rect></g><g transform="translate(-206,-102) scale(1,1)"><path fill="none" stroke="#000000" d="M 512 300 L 746 300 L 746 420 L 512 420 L 512 300 Z Z" stroke-miterlimit="10"></path></g><g transform="translate(-206,-102) scale(1,1)"><path fill="none" stroke="#000000" d="M 512 325 L 746 325" stroke-miterlimit="10"></path></g><g transform="translate(-206,-102) scale(1,1)"><path fill="none" stroke="#000000" d="M 512 348 L 746 348" stroke-miterlimit="10"></path></g><g transform="translate(-206,-102) scale(1,1)"><g><path fill="none" stroke="none"></path><text fill="#000000" stroke="none" font-family="Arial" font-size="13px" font-style="normal" font-weight="bold" text-decoration="none" x="607.5" y="319.5">Memori</text></g></g><g transform="translate(-206,-102) scale(1,1)"><g><path fill="none" stroke="none"></path><text fill="#000000" stroke="none" font-family="Arial" font-size="13px" font-style="normal" font-weight="normal" text-decoration="none" x="517" y="342.5">-VectorOfExpression: Vector</text></g></g><g transform="translate(-206,-102) scale(1,1)"><g><path fill="none" stroke="none"></path><text fill="#000000" stroke="none" font-family="Arial" font-size="13px" font-style="normal" font-weight="normal" text-decoration="none" x="517" y="365.5">+GetExpression(i: Integer): Expression</text></g></g><g transform="translate(-206,-102) scale(1,1)"><g><path fill="none" stroke="none"></path><text fill="#000000" stroke="none" font-family="Arial" font-size="13px" font-style="normal" font-weight="normal" text-decoration="none" x="517" y="380.5">+GetAllExpresion(): Expression</text></g></g><g transform="translate(-206,-102) scale(1,1)"><g><path fill="none" stroke="none"></path><text fill="#000000" stroke="none" font-family="Arial" font-size="13px" font-style="normal" font-weight="normal" text-decoration="none" x="517" y="395.5">+GetLength(): Integer</text></g></g><g transform="translate(-206,-102) scale(1,1)"><rect fill="#C0C0C0" stroke="none" x="267" y="311" width="174" height="119" opacity="0.2"></rect></g><g transform="translate(-206,-102) scale(1,1)"><rect fill="#ffffff" stroke="none" x="260" y="304" width="174" height="119"></rect></g><g transform="translate(-206,-102) scale(1,1)"><path fill="none" stroke="#000000" d="M 260 304 L 434 304 L 434 423 L 260 423 L 260 304 Z Z" stroke-miterlimit="10"></path></g><g transform="translate(-206,-102) scale(1,1)"><path fill="none" stroke="#000000" d="M 260 329 L 434 329" stroke-miterlimit="10"></path></g><g transform="translate(-206,-102) scale(1,1)"><path fill="none" stroke="#000000" d="M 260 352 L 434 352" stroke-miterlimit="10"></path></g><g transform="translate(-206,-102) scale(1,1)"><g><path fill="none" stroke="none"></path><text fill="#000000" stroke="none" font-family="Arial" font-size="13px" font-style="normal" font-weight="bold" text-decoration="none" x="314.5" y="323.5">Expression</text></g></g><g transform="translate(-206,-102) scale(1,1)"><g><path fill="none" stroke="none"></path><text fill="#000000" stroke="none" font-family="Arial" font-size="13px" font-style="normal" font-weight="normal" text-decoration="none" x="265" y="346.5">-VectorOfToken: Vector</text></g></g><g transform="translate(-206,-102) scale(1,1)"><g><path fill="none" stroke="none"></path><text fill="#000000" stroke="none" font-family="Arial" font-size="13px" font-style="normal" font-weight="normal" text-decoration="none" x="265" y="369.5">+GetToken(i: Integer): Token</text></g></g><g transform="translate(-206,-102) scale(1,1)"><g><path fill="none" stroke="none"></path><text fill="#000000" stroke="none" font-family="Arial" font-size="13px" font-style="normal" font-weight="normal" text-decoration="none" x="265" y="384.5">+GetLength(): Integer</text></g></g><g transform="translate(-206,-102) scale(1,1)"><g><path fill="none" stroke="none"></path><text fill="#000000" stroke="none" font-family="Arial" font-size="13px" font-style="normal" font-weight="normal" text-decoration="none" x="265" y="399.5">+AddToken(T: Token)</text></g></g><g transform="translate(-206,-102) scale(1,1)"><path fill="none" stroke="#000000" d="M 314 647 L 328 588" stroke-miterlimit="10"></path></g><g transform="translate(-206,-102) scale(1,1)"><path fill="#FFFFFF" stroke="none" d="M 331.4989156698759 609.7199813336729 L 328 588 L 315.1157609086838 605.8324530852544"></path></g><g transform="translate(-206,-102) scale(1,1)"><path fill="none" stroke="#000000" d="M 331.4989156698759 609.7199813336729 L 328 588 L 315.1157609086838 605.8324530852544 L 331.4989156698759 609.7199813336729" stroke-miterlimit="10"></path></g><g transform="translate(-206,-102) scale(1,1)"><path fill="none" stroke="#000000" d="M 447 779 L 372 588" stroke-miterlimit="10"></path></g><g transform="translate(-206,-102) scale(1,1)"><path fill="#FFFFFF" stroke="none" d="M 387.26547610196377 603.8418824443427 L 372 588 L 371.59241916658493 609.9962241728946"></path></g><g transform="translate(-206,-102) scale(1,1)"><path fill="none" stroke="#000000" d="M 387.26547610196377 603.8418824443427 L 372 588 L 371.59241916658493 609.9962241728946 L 387.26547610196377 603.8418824443427" stroke-miterlimit="10"></path></g><g transform="translate(-206,-102) scale(1,1)"><path fill="none" stroke="#000000" d="M 655 783 L 420 584" stroke-miterlimit="10"></path></g><g transform="translate(-206,-102) scale(1,1)"><path fill="#FFFFFF" stroke="none" d="M 440.95174628991 590.7100169450787 L 420 584 L 430.07042339555363 603.5598203630373"></path></g><g transform="translate(-206,-102) scale(1,1)"><path fill="none" stroke="#000000" d="M 440.95174628991 590.7100169450787 L 420 584 L 430.07042339555363 603.5598203630373 L 440.95174628991 590.7100169450787" stroke-miterlimit="10"></path></g><g transform="translate(-206,-102) scale(1,1)"><path fill="none" stroke="#000000" d="M 435 362 L 511 361" stroke-miterlimit="10"></path></g><g transform="translate(-206,-102) scale(1,1)"><path fill="#000000" stroke="none" d="M 500.89358835854296 365.34286123810347 L 511 361 L 500.7828211636479 356.9245544260782 L 489.0019041848826 361.2894486291463"></path></g><g transform="translate(-206,-102) scale(1,1)"><path fill="none" stroke="#000000" d="M 500.89358835854296 365.34286123810347 L 511 361 L 500.7828211636479 356.9245544260782 L 489.0019041848826 361.2894486291463 L 500.89358835854296 365.34286123810347" stroke-miterlimit="10"></path></g><g transform="translate(-206,-102) scale(1,1)"><g><path fill="none" stroke="none"></path><text fill="#000000" stroke="none" font-family="Arial" font-size="13px" font-style="normal" font-weight="normal" text-decoration="none" x="446" y="381">0..*</text></g></g><g transform="translate(-206,-102) scale(1,1)"><g><path fill="none" stroke="none"></path><text fill="#000000" stroke="none" font-family="Arial" font-size="13px" font-style="normal" font-weight="normal" text-decoration="none" x="486" y="380">1</text></g></g><g transform="translate(-206,-102) scale(1,1)"><path fill="none" stroke="#000000" d="M 435 398 L 693 499" stroke-miterlimit="10" stroke-dasharray="3"></path></g><g transform="translate(-206,-102) scale(1,1)"><path fill="none" stroke="#000000" d="M 682.0021053220356 499.21520374625646 L 693 499 L 685.0711420661212 491.37548612275066" stroke-miterlimit="10"></path></g><g transform="translate(-206,-102) scale(1,1)"><path fill="none" stroke="#000000" d="M 875 499 L 884 461" stroke-miterlimit="10" stroke-dasharray="3"></path></g><g transform="translate(-206,-102) scale(1,1)"><path fill="none" stroke="#000000" d="M 885.7540438232415 471.8592509072287 L 884 461 L 877.5616463268049 469.91894623702007" stroke-miterlimit="10"></path></g><g transform="translate(-206,-102) scale(1,1)"><path fill="none" stroke="#000000" d="M 747 362 L 799 362" stroke-miterlimit="10" stroke-dasharray="3"></path></g><g transform="translate(-206,-102) scale(1,1)"><path fill="none" stroke="#000000" d="M 788.8373251423759 366.209517756016 L 799 362 L 788.8373251423758 357.790482243984" stroke-miterlimit="10"></path></g><g transform="translate(-206,-102) scale(1,1)"><path fill="none" stroke="#000000" d="M 346 455 L 346 424" stroke-miterlimit="10" stroke-dasharray="3"></path></g><g transform="translate(-206,-102) scale(1,1)"><path fill="none" stroke="#000000" d="M 350.209517756016 434.16267485762415 L 346 424 L 341.790482243984 434.16267485762415" stroke-miterlimit="10"></path></g><g transform="translate(-206,-102) scale(1,1)"><rect fill="#C0C0C0" stroke="none" x="295" y="141" width="153" height="105" opacity="0.2"></rect></g><g transform="translate(-206,-102) scale(1,1)"><rect fill="#C0C0C0" stroke="none" x="400" y="123" width="57" height="22" opacity="0.2"></rect></g><g transform="translate(-206,-102) scale(1,1)"><rect fill="#ffffff" stroke="none" x="288" y="134" width="153" height="105"></rect></g><g transform="translate(-206,-102) scale(1,1)"><path fill="none" stroke="#000000" d="M 288 134 L 441 134 L 441 239 L 288 239 L 288 134 Z Z" stroke-miterlimit="10"></path></g><g transform="translate(-206,-102) scale(1,1)"><path fill="none" stroke="#000000" d="M 288 159 L 441 159" stroke-miterlimit="10"></path></g><g transform="translate(-206,-102) scale(1,1)"><path fill="none" stroke="#000000" d="M 288 169 L 441 169" stroke-miterlimit="10"></path></g><g transform="translate(-206,-102) scale(1,1)"><g><path fill="none" stroke="none"></path><text fill="#000000" stroke="none" font-family="Arial" font-size="13px" font-style="normal" font-weight="bold" text-decoration="none" x="345.5" y="153.5">Vector</text></g></g><g transform="translate(-206,-102) scale(1,1)"><rect fill="#ffffff" stroke="none" x="393" y="116" width="57" height="22"></rect></g><g transform="translate(-206,-102) scale(1,1)"><path fill="none" stroke="#000000" d="M 393 116 L 450 116 L 450 138 L 393 138 L 393 116 Z Z" stroke-miterlimit="10" stroke-dasharray="3"></path></g><g transform="translate(-206,-102) scale(1,1)"><g><path fill="none" stroke="none"></path><text fill="#000000" stroke="none" font-family="Arial" font-size="13px" font-style="normal" font-weight="normal" text-decoration="none" x="398" y="133.5">T: Class</text></g></g><g transform="translate(-206,-102) scale(1,1)"><rect fill="#C0C0C0" stroke="none" x="643" y="137" width="154" height="102" opacity="0.2"></rect></g><g transform="translate(-206,-102) scale(1,1)"><rect fill="#C0C0C0" stroke="none" x="749" y="119" width="57" height="22" opacity="0.2"></rect></g><g transform="translate(-206,-102) scale(1,1)"><rect fill="#ffffff" stroke="none" x="636" y="130" width="154" height="102"></rect></g><g transform="translate(-206,-102) scale(1,1)"><path fill="none" stroke="#000000" d="M 636 130 L 790 130 L 790 232 L 636 232 L 636 130 Z Z" stroke-miterlimit="10"></path></g><g transform="translate(-206,-102) scale(1,1)"><path fill="none" stroke="#000000" d="M 636 155 L 790 155" stroke-miterlimit="10"></path></g><g transform="translate(-206,-102) scale(1,1)"><path fill="none" stroke="#000000" d="M 636 165 L 790 165" stroke-miterlimit="10"></path></g><g transform="translate(-206,-102) scale(1,1)"><g><path fill="none" stroke="none"></path><text fill="#000000" stroke="none" font-family="Arial" font-size="13px" font-style="normal" font-weight="bold" text-decoration="none" x="696" y="149.5">Stack</text></g></g><g transform="translate(-206,-102) scale(1,1)"><rect fill="#ffffff" stroke="none" x="742" y="112" width="57" height="22"></rect></g><g transform="translate(-206,-102) scale(1,1)"><path fill="none" stroke="#000000" d="M 742 112 L 799 112 L 799 134 L 742 134 L 742 112 Z Z" stroke-miterlimit="10" stroke-dasharray="3"></path></g><g transform="translate(-206,-102) scale(1,1)"><g><path fill="none" stroke="none"></path><text fill="#000000" stroke="none" font-family="Arial" font-size="13px" font-style="normal" font-weight="normal" text-decoration="none" x="747" y="129.5">T: Class</text></g></g><g transform="translate(-206,-102) scale(1,1)"><path fill="none" stroke="#000000" d="M 354 303 L 362 240" stroke-miterlimit="10" stroke-dasharray="3"></path></g><g transform="translate(-206,-102) scale(1,1)"><path fill="none" stroke="#000000" d="M 364.895765662753 250.61199986931874 L 362 240 L 356.54379846731376 249.55143260640583" stroke-miterlimit="10"></path></g><g transform="translate(-206,-102) scale(1,1)"><g><path fill="none" stroke="none"></path><text fill="#000000" stroke="none" font-family="Arial" font-size="13px" font-style="normal" font-weight="normal" text-decoration="none" x="343" y="279">{T=Token}</text></g></g><g transform="translate(-206,-102) scale(1,1)"><path fill="none" stroke="#000000" d="M 542 299 L 452 235" stroke-miterlimit="10" stroke-dasharray="3"></path></g><g transform="translate(-206,-102) scale(1,1)"><path fill="none" stroke="#000000" d="M 462.7216416557979 237.45894290390402 L 452 235 L 457.84261031836576 244.32008072216792" stroke-miterlimit="10"></path></g><g transform="translate(-206,-102) scale(1,1)"><g><path fill="none" stroke="none"></path><text fill="#000000" stroke="none" font-family="Arial" font-size="13px" font-style="normal" font-weight="normal" text-decoration="none" x="461" y="261">{T=Expression}</text></g></g><g transform="translate(-206,-102) scale(1,1)"><path fill="none" stroke="#000000" d="M 813 267 L 779 233" stroke-miterlimit="10" stroke-dasharray="3"></path></g><g transform="translate(-206,-102) scale(1,1)"><path fill="none" stroke="#000000" d="M 789.1626748576241 237.209517756016 L 779 233 L 783.209517756016 243.16267485762415" stroke-miterlimit="10"></path></g><g transform="translate(-206,-102) scale(1,1)"><g><path fill="none" stroke="none"></path><text fill="#000000" stroke="none" font-family="Arial" font-size="13px" font-style="normal" font-weight="normal" text-decoration="none" x="777" y="246">{T=Token}</text></g></g><g transform="translate(-206,-102) scale(1,1)"><path fill="#ffffff" stroke="none" d="M 488 148 L 573 148 L 583 158 L 583 197 L 488 197 L 488 148"></path></g><g transform="translate(-206,-102) scale(1,1)"><path fill="none" stroke="#000000" d="M 488 148 L 573 148 L 583 158 L 583 197 L 488 197 L 488 148 L 488 148" stroke-miterlimit="10"></path></g><g transform="translate(-206,-102) scale(1,1)"><path fill="none" stroke="#000000" d="M 573 148 L 573 158 L 583 158 L 573 148" stroke-miterlimit="10"></path></g><g transform="translate(-206,-102) scale(1,1)"><g><path fill="none" stroke="none"></path><text fill="#000000" stroke="none" font-family="Arial" font-size="13px" font-style="normal" font-weight="normal" text-decoration="none" x="493" y="166">Sesuai STL</text><text fill="#000000" stroke="none" font-family="Arial" font-size="13px" font-style="normal" font-weight="normal" text-decoration="none" x="493" y="179">C++ yang</text><text fill="#000000" stroke="none" font-family="Arial" font-size="13px" font-style="normal" font-weight="normal" text-decoration="none" x="493" y="192">diperlukan</text></g></g><g transform="translate(-206,-102) scale(1,1)"><path fill="none" stroke="#000000" d="M 487 174 L 452 175" stroke-miterlimit="10" stroke-dasharray="3"></path></g><g transform="translate(-206,-102) scale(1,1)"><path fill="none" stroke="#000000" d="M 585 173 L 635 172" stroke-miterlimit="10" stroke-dasharray="3"></path></g></g></svg>